<svg xmlns="http://www.w3.org/2000/svg" width="900" height="540" viewBox="0 0 900 540">
<rect width="100%" height="100%" fill="#ffffff"/>
<style>
text{font-family:Arial,Helvetica,sans-serif;fill:#1f2933}
.title{font-size:18px;font-weight:700}
.axis{stroke:#52606d;stroke-width:1}
.grid{stroke:#d9e2ec;stroke-width:1}
.tick{font-size:11px;fill:#52606d}
.label{font-size:12px;fill:#334e68}
.point-label{font-size:11px;fill:#243b53;font-weight:600}
.legend{font-size:12px;fill:#243b53}
</style>
<text x="450.0" y="28" text-anchor="middle" class="title">Strong Scaling: Iterations 1-9 Mean vs Ideal</text>
<line x1="92" y1="448" x2="866" y2="448" class="axis"/>
<line x1="92" y1="62" x2="92" y2="448" class="axis"/>
<line x1="146.4" y1="62" x2="146.4" y2="448" class="grid"/>
<line x1="146.4" y1="448" x2="146.4" y2="453" class="axis"/>
<text x="146.4" y="471" text-anchor="middle" class="tick">2</text>
<line x1="479.0" y1="62" x2="479.0" y2="448" class="grid"/>
<line x1="479.0" y1="448" x2="479.0" y2="453" class="axis"/>
<text x="479.0" y="471" text-anchor="middle" class="tick">4</text>
<line x1="811.6" y1="62" x2="811.6" y2="448" class="grid"/>
<line x1="811.6" y1="448" x2="811.6" y2="453" class="axis"/>
<text x="811.6" y="471" text-anchor="middle" class="tick">8</text>
<line x1="92" y1="448.0" x2="866" y2="448.0" class="grid"/>
<text x="84" y="452.0" text-anchor="end" class="tick">0.895</text>
<line x1="92" y1="427.4" x2="866" y2="427.4" class="grid"/>
<text x="84" y="431.4" text-anchor="end" class="tick">1</text>
<line x1="92" y1="298.3" x2="866" y2="298.3" class="grid"/>
<text x="84" y="302.3" text-anchor="end" class="tick">2</text>
<line x1="92" y1="127.7" x2="866" y2="127.7" class="grid"/>
<text x="84" y="131.7" text-anchor="end" class="tick">5</text>
<line x1="92" y1="62.0" x2="866" y2="62.0" class="grid"/>
<text x="84" y="66.0" text-anchor="end" class="tick">7.11687</text>
<text x="479.0" y="526" text-anchor="middle" class="label">MPI ranks / GPUs (log scale)</text>
<text x="16" y="255.0" text-anchor="middle" class="label" transform="rotate(-90 16 255.0)">total_s_max mean (ms) (log scale)</text>
<polyline points="146.4,159.1 479.0,278.8 811.6,372.9" fill="none" stroke="#2f80ed" stroke-width="2.5"/>
<circle cx="146.4" cy="159.1" r="4" fill="#2f80ed"/>
<circle cx="479.0" cy="278.8" r="4" fill="#2f80ed"/>
<circle cx="811.6" cy="372.9" r="4" fill="#2f80ed"/>
<text x="153.4" y="152.1" class="point-label">100.0%</text>
<text x="486.0" y="271.8" class="point-label">95.1%</text>
<text x="818.6" y="365.9" class="point-label">78.8%</text>
<line x1="100" y1="75" x2="116" y2="75" stroke="#2f80ed" stroke-width="2.5"/>
<text x="122" y="80" class="legend">128x128x4096</text>
<polyline points="146.4,159.1 479.0,288.1 811.6,417.2" fill="none" stroke="#2f80ed" stroke-width="2" stroke-dasharray="7 5" opacity="0.45"/>
<line x1="100" y1="95" x2="116" y2="95" stroke="#2f80ed" stroke-width="2" stroke-dasharray="7 5" opacity="0.45"/>
<text x="122" y="100" class="legend">128x128x4096 ideal</text>
<polyline points="146.4,92.8 479.0,214.5 811.6,310.8" fill="none" stroke="#27ae60" stroke-width="2.5"/>
<circle cx="146.4" cy="92.8" r="4" fill="#27ae60"/>
<circle cx="479.0" cy="214.5" r="4" fill="#27ae60"/>
<circle cx="811.6" cy="310.8" r="4" fill="#27ae60"/>
<text x="153.4" y="85.8" class="point-label">100.0%</text>
<text x="486.0" y="207.5" class="point-label">96.1%</text>
<text x="818.6" y="303.8" class="point-label">80.6%</text>
<line x1="100" y1="115" x2="116" y2="115" stroke="#27ae60" stroke-width="2.5"/>
<text x="122" y="120" class="legend">256x256x4096</text>
<polyline points="146.4,92.8 479.0,221.9 811.6,350.9" fill="none" stroke="#27ae60" stroke-width="2" stroke-dasharray="7 5" opacity="0.45"/>
<line x1="100" y1="135" x2="116" y2="135" stroke="#27ae60" stroke-width="2" stroke-dasharray="7 5" opacity="0.45"/>
<text x="122" y="140" class="legend">256x256x4096 ideal</text>
</svg>
