<svg xmlns="http://www.w3.org/2000/svg" width="920" height="520" viewBox="0 0 920 520">
<rect width="100%" height="100%" fill="#ffffff"/>
<style>
text{font-family:Arial,Helvetica,sans-serif;fill:#1f2933}
.title{font-size:18px;font-weight:700}
.axis{stroke:#52606d;stroke-width:1}
.grid{stroke:#d9e2ec;stroke-width:1}
.tick{font-size:11px;fill:#52606d}
.label{font-size:12px;fill:#334e68}
.point-label{font-size:11px;fill:#243b53;font-weight:600}
.legend{font-size:12px;fill:#243b53}
</style>
<text x="460.0" y="28" text-anchor="middle" class="title">First Call vs Iterations 1-9 Mean</text>
<line x1="88" y1="408" x2="886" y2="408" class="axis"/>
<line x1="88" y1="58" x2="88" y2="408" class="axis"/>
<line x1="88" y1="408.0" x2="886" y2="408.0" class="grid"/>
<text x="80" y="412.0" text-anchor="end" class="tick">0.00</text>
<line x1="88" y1="338.0" x2="886" y2="338.0" class="grid"/>
<text x="80" y="342.0" text-anchor="end" class="tick">50.00</text>
<line x1="88" y1="268.0" x2="886" y2="268.0" class="grid"/>
<text x="80" y="272.0" text-anchor="end" class="tick">100.00</text>
<line x1="88" y1="198.0" x2="886" y2="198.0" class="grid"/>
<text x="80" y="202.0" text-anchor="end" class="tick">150.00</text>
<line x1="88" y1="128.0" x2="886" y2="128.0" class="grid"/>
<text x="80" y="132.0" text-anchor="end" class="tick">200.00</text>
<line x1="88" y1="58.0" x2="886" y2="58.0" class="grid"/>
<text x="80" y="62.0" text-anchor="end" class="tick">250.00</text>
<text x="487.0" y="508" text-anchor="middle" class="label">central case 128x128x4096</text>
<text x="16" y="233.0" text-anchor="middle" class="label" transform="rotate(-90 16 233.0)">total_s_max (ms)</text>
<rect x="114.6" y="344.7" width="103.4" height="63.3" fill="#eb5757"/>
<rect x="221.0" y="402.1" width="103.4" height="5.9" fill="#2f80ed"/>
<text x="221.0" y="432" text-anchor="middle" class="tick">np=2</text>
<rect x="380.6" y="243.2" width="103.4" height="164.8" fill="#eb5757"/>
<rect x="487.0" y="404.9" width="103.4" height="3.1" fill="#2f80ed"/>
<text x="487.0" y="432" text-anchor="middle" class="tick">np=4</text>
<rect x="646.6" y="107.8" width="103.4" height="300.2" fill="#eb5757"/>
<rect x="753.0" y="406.1" width="103.4" height="1.9" fill="#2f80ed"/>
<text x="753.0" y="432" text-anchor="middle" class="tick">np=8</text>
<rect x="96" y="65" width="12" height="12" fill="#eb5757"/>
<text x="114" y="76" class="legend">iter 0</text>
<rect x="96" y="85" width="12" height="12" fill="#2f80ed"/>
<text x="114" y="96" class="legend">iter 1-9 mean</text>
</svg>
